<svg id="Layer_1" data-name="Layer 1" xmlns="http://www.w3.org/2000/svg" xmlns:xlink="http://www.w3.org/1999/xlink" viewBox="0 0 945.35115 709"><defs><style>.cls-1{fill:none;}.cls-2{clip-path:url(#clip-path);}.cls-3{opacity:0.4;}.cls-4{fill:url(#linear-gradient);}.cls-5{opacity:0.5;}.cls-6{fill:url(#radial-gradient);}.cls-7{fill:url(#radial-gradient-15);}.cls-8{fill:url(#radial-gradient-16);}</style><clipPath id="clip-path" transform="translate(138.89 181)"><rect class="cls-1" width="551.95001" height="485.26001"/></clipPath><linearGradient id="linear-gradient" x1="138.89978" y1="367.16" x2="945.35115" y2="367.16" gradientTransform="matrix(1, 0, 0, -1, -138.89, 540.66)" gradientUnits="userSpaceOnUse"><stop offset="0" stop-color="#70c5a3"/><stop offset="0.49" stop-color="#0a11ab"/><stop offset="1"/></linearGradient><radialGradient id="radial-gradient" cx="403.61441" cy="258.10636" r="161.85676" gradientTransform="matrix(1, 0, 0, -1, -138.89, 540.66)" xlink:href="#linear-gradient"/><radialGradient id="radial-gradient-15" cx="403.61441" cy="258.11772" r="161.85676" gradientTransform="matrix(1, 0, 0, -1, -138.89, 540.66)" xlink:href="#linear-gradient"/><radialGradient id="radial-gradient-16" cx="403.61441" cy="258.10636" r="161.85676" gradientTransform="matrix(1, 0, 0, -1, -138.89, 540.66)" gradientUnits="userSpaceOnUse"><stop offset="0" stop-color="#70c5a3"/><stop offset="0.65" stop-color="#0a11ab"/><stop offset="1"/></radialGradient></defs><g class="cls-2"><path class="cls-1" d="M16.17,235.66H556.48a16.17,16.17,0,0,1,16.17,16.17V601.26a16.17,16.17,0,0,1-16.17,16.17H16.17A16.17,16.17,0,0,1,0,601.26V251.83a16.17,16.17,0,0,1,16.17-16.17Z"/><g class="cls-3"><path class="cls-4" d="M537.31853-83.92606c17.34336,55.21533-37.44824,166.94638-10.79762,189.94424,35.06663,30.18652,68.13154.61366,149.7491,23.30469,30.68329,8.53287,74.60424,20.73315,101.10879,53.03828,57.45084,70.01636,25.87628,225.4638-60.40231,282.57856C655.6099,505.58779,691.524,486.2573,545.58837,500.094c-160.0207,15.1225-194.76588-6.75031-285.55924,18.2785-101.18181,28.02407-199.82131-5.14309-243.187-99.35545C-14.01654,351.96672-3.61345,281.176,57.75315,225.31776c51.51871-46.90163,95.6004-12.49249,156.92317-55.52216,4.31029-3.02451,33.69318-24.269,41.74391-59.83243,4.69015-20.66009,3.419-35.2858-4.14955-54.20716C201.89161-70.13318,250.00594-136.862,307.5006-162.6068S499.242-205.15431,537.31853-83.92606Z" transform="translate(138.89 181)"/></g><g class="cls-5"><path class="cls-6" d="M7.07278,229.41121l-.10217.28382,181.463-104.77491h-.39736Z" transform="translate(138.89 181)"/><path class="cls-6" d="M0,264.17347,239.83908,125.6694h-.35194L0,263.94641Z" transform="translate(138.89 181)"/><path class="cls-6" d="M4.0643,292.27163l281.64-162.59469h-.31788L4.0643,292.07863A1.23611,1.23611,0,0,1,4.0643,292.27163Z" transform="translate(138.89 181)"/><path class="cls-6" d="M13.49847,317.06612l.09082.17028L326.80147,136.40914l-.28382-.05676Z" transform="translate(138.89 181)"/><path class="cls-6" d="M26.0206,340.33934l.10217.17029L365.208,144.68533h-.28382Z" transform="translate(138.89 181)"/><path class="cls-6" d="M402.70625,153.268,40.87007,362.15941a1.28091,1.28091,0,0,1,.11353.14759L402.97871,153.33615Z" transform="translate(138.89 181)"/><path class="cls-6" d="M60.885,381.31157,430.92928,167.67473l-.14759-.13623L60.66932,381.20939Z" transform="translate(138.89 181)"/><path class="cls-6" d="M87.51867,396.38807l367.172-211.99068-.193-.11352L87.337,396.26321Z" transform="translate(138.89 181)"/><path class="cls-6" d="M113.32358,411.94141,480.77936,199.79178l-.193-.11354L113.13058,411.86193Z" transform="translate(138.89 181)"/><path class="cls-6" d="M141.80771,425.96212l364.05-210.197-.17031-.12488-364.10671,210.231Z" transform="translate(138.89 181)"/><path class="cls-6" d="M174.67406,437.43977,530.24348,232.14723l-.17032-.12488L174.42429,437.36029Z" transform="translate(138.89 181)"/><path class="cls-6" d="M210.51483,447.20318,546.22823,253.377a.96642.96642,0,0,0,0-.193L210.24234,447.13507Z" transform="translate(138.89 181)"/><path class="cls-6" d="M249.28461,455.28636,551.0418,281.05506v-.20434L248.96673,455.22961Z" transform="translate(138.89 181)"/><path class="cls-6" d="M294.43465,459.66852,551.95,310.947v-.22705L294.08271,459.64583Z" transform="translate(138.89 181)"/><path class="cls-7" d="M342.85433,462.16615,548.88481,343.2116a1.75618,1.75618,0,0,1,0-.2384L342.491,462.15479Z" transform="translate(138.89 181)"/><path class="cls-8" d="M543.583,244.77155l-.10221-.28382L374.07451,146.68342l-.62439-.13624Z" transform="translate(138.89 181)"/><path class="cls-8" d="M293.18587,130.65328,550.89428,279.443a1.69088,1.69088,0,0,0,0-.23842L293.69672,130.73275Z" transform="translate(138.89 181)"/><path class="cls-8" d="M231.12014,125.29476,551.95,310.52692v-.21571L231.56292,125.31746Z" transform="translate(138.89 181)"/><path class="cls-8" d="M178.19343,125.18123,549.42973,339.5333V339.329L178.56806,125.18123Z" transform="translate(138.89 181)"/><path class="cls-8" d="M141.34228,134.36564,531.288,359.50286l.13622-.14759L141.558,134.26347Z" transform="translate(138.89 181)"/><path class="cls-8" d="M511.01185,378.24633l.14759-.12486L113.39169,148.47716l-.20434.10217Z" transform="translate(138.89 181)"/><path class="cls-8" d="M488.82852,395.87722l.17032-.12487L86.12228,163.23579l-.193.10217Z" transform="translate(138.89 181)"/><path class="cls-8" d="M464.32917,412.21387l.193-.11354L59.693,178.38041l-.18165.11353Z" transform="translate(138.89 181)"/><path class="cls-8" d="M438.05886,427.50608a1.13561,1.13561,0,0,1,.193-.11354L34.02432,194.01321l-.18165.11353Z" transform="translate(138.89 181)"/><path class="cls-8" d="M14.87216,213.63083,411.41383,442.58258l.193-.11353L14.97434,213.47189Z" transform="translate(138.89 181)"/><path class="cls-8" d="M4.14378,237.90311l380.64773,219.756.193-.10217L4.21189,237.71011Z" transform="translate(138.89 181)"/><path class="cls-8" d="M.01135,265.96721,339.67553,462.07534h.43141L.01135,265.7515Z" transform="translate(138.89 181)"/><path class="cls-8" d="M6.66408,300.264,280.94756,458.62409h.44278L6.56191,299.99153Z" transform="translate(138.89 181)"/><path class="cls-8" d="M27.54187,342.78019,206.76839,446.24951l.68117.18165L27.32618,342.42825A1.58449,1.58449,0,0,0,27.54187,342.78019Z" transform="translate(138.89 181)"/></g></g></svg>